# xmcd CD database file
#
# Track frame offsets:
#	150
#	46134
#	80330
#	115075
#	148140
#	187045
#	218457
#	263787
#	307383
#
# Disc length: 4684 seconds
#
# Revision: 0
# Processed by: cddbd v1.5.2PL0 Copyright (c) Steve Scherf et al.
# Submitted via: CDex 1.70beta2
#
DISCID=7f124a09
DTITLE=Michael Brecker - Pilgrimage
DYEAR=2007
DGENRE=Jazz
TTITLE0=The Mean Time
TTITLE1=Five Months from Midnight
TTITLE2=Anagram
TTITLE3=Tumbleweed
TTITLE4=When Can I Kiss You Again?
TTITLE5=Cardinal Rule
TTITLE6=Half Moon Lane
TTITLE7=Loose Threads
TTITLE8=Pilgrimage
EXTD=YEAR: 2007
EXTT0=
EXTT1=
EXTT2=
EXTT3=
EXTT4=
EXTT5=
EXTT6=
EXTT7=
EXTT8=
PLAYORDER=
